<?xml version="1.0" encoding="UTF-8"?>
<svg width="66px" height="90px" viewBox="0 0 66 90" version="1.1" xmlns="http://www.w3.org/2000/svg" xmlns:xlink="http://www.w3.org/1999/xlink">
    <!-- Generator: Sketch 62 (91390) - https://sketch.com -->
    <title>Artboard</title>
    <desc>Created with Sketch.</desc>
    <g id="Artboard" stroke="none" stroke-width="1" fill="none" fill-rule="evenodd">
        <g id="noun_Share_1364080" transform="translate(-17.000000, 0.000000)" fill="#C74523" fill-rule="nonzero">
            <path d="M17.41,42.46 L17.41,76.79 C17.41,83.9697017 23.2302983,89.79 30.41,89.79 L69.59,89.79 C76.7697017,89.79 82.59,83.9697017 82.59,76.79 L82.59,42.46 C82.59,39.0121856 81.2203611,35.7055848 78.7823882,33.2676118 C76.3444152,30.8296389 73.0378144,29.46 69.59,29.46 L62.92,29.46 C61.2631458,29.46 59.92,30.8031458 59.92,32.46 C59.92,34.1168542 61.2631458,35.46 62.92,35.46 L69.59,35.46 C73.4559932,35.46 76.59,38.5940068 76.59,42.46 L76.59,76.79 C76.59,80.6559932 73.4559932,83.79 69.59,83.79 L30.41,83.79 C26.5440068,83.79 23.41,80.6559932 23.41,76.79 L23.41,42.46 C23.41,38.5940068 26.5440068,35.46 30.41,35.46 L37.08,35.46 C38.7368542,35.46 40.08,34.1168542 40.08,32.46 C40.08,30.8031458 38.7368542,29.46 37.08,29.46 L30.41,29.46 C26.9621856,29.46 23.6555848,30.8296389 21.2176118,33.2676118 C18.7796389,35.7055848 17.41,39.0121856 17.41,42.46 Z" id="Path"></path>
            <path d="M49.45,60.13 C51.1068542,60.13 52.45,58.7868542 52.45,57.13 L52.45,9.73 L65.8,21.17 C67.0641643,22.1497183 68.8746231,21.9654471 69.9154742,20.7511208 C70.9563254,19.5367945 70.861535,17.7194525 69.7,16.62 L51.41,0.93 C50.287328,-0.0302631693 48.632672,-0.0302631693 47.51,0.93 L29.2,16.62 C28.3249154,17.2981843 27.8944732,18.4032021 28.0802361,19.4946228 C28.2659989,20.5860435 29.0377686,21.4864415 30.0879383,21.8369421 C31.1381079,22.1874427 32.2959579,21.9310672 33.1,21.17 L46.45,9.73 L46.45,57.13 C46.45,58.7868542 47.7931458,60.13 49.45,60.13 Z" id="Path"></path>
        </g>
    </g>
</svg>